<?xml version="1.0" encoding="UTF-8"?>
<svg xmlns="http://www.w3.org/2000/svg" xmlns:xlink="http://www.w3.org/1999/xlink" viewBox="0 0 64 64" width="64px" height="64px">
<defs>
<linearGradient id="linear0" gradientUnits="userSpaceOnUse" x1="32" y1="58.446999" x2="32" y2="7.25" >
<stop offset="0" style="stop-color:rgb(8.235294%,36.078432%,87.058824%);stop-opacity:1;"/>
<stop offset="0.278" style="stop-color:rgb(12.156863%,49.803922%,89.803922%);stop-opacity:1;"/>
<stop offset="0.569" style="stop-color:rgb(15.294118%,61.176473%,92.156863%);stop-opacity:1;"/>
<stop offset="0.82" style="stop-color:rgb(17.254902%,68.627453%,93.725491%);stop-opacity:1;"/>
<stop offset="1" style="stop-color:rgb(18.039216%,70.980394%,94.117647%);stop-opacity:1;"/>
</linearGradient>
<linearGradient id="linear1" gradientUnits="userSpaceOnUse" x1="31.999001" y1="58.191002" x2="31.999001" y2="5.21" >
<stop offset="0" style="stop-color:rgb(8.235294%,36.078432%,87.058824%);stop-opacity:1;"/>
<stop offset="0.278" style="stop-color:rgb(12.156863%,49.803922%,89.803922%);stop-opacity:1;"/>
<stop offset="0.569" style="stop-color:rgb(15.294118%,61.176473%,92.156863%);stop-opacity:1;"/>
<stop offset="0.82" style="stop-color:rgb(17.254902%,68.627453%,93.725491%);stop-opacity:1;"/>
<stop offset="1" style="stop-color:rgb(18.039216%,70.980394%,94.117647%);stop-opacity:1;"/>
</linearGradient>
<linearGradient id="linear2" gradientUnits="userSpaceOnUse" x1="32" y1="57.808998" x2="32" y2="5.933" >
<stop offset="0" style="stop-color:rgb(8.235294%,36.078432%,87.058824%);stop-opacity:1;"/>
<stop offset="0.278" style="stop-color:rgb(12.156863%,49.803922%,89.803922%);stop-opacity:1;"/>
<stop offset="0.569" style="stop-color:rgb(15.294118%,61.176473%,92.156863%);stop-opacity:1;"/>
<stop offset="0.82" style="stop-color:rgb(17.254902%,68.627453%,93.725491%);stop-opacity:1;"/>
<stop offset="1" style="stop-color:rgb(18.039216%,70.980394%,94.117647%);stop-opacity:1;"/>
</linearGradient>
<linearGradient id="linear3" gradientUnits="userSpaceOnUse" x1="32" y1="37" x2="32" y2="27" >
<stop offset="0" style="stop-color:rgb(8.235294%,36.078432%,87.058824%);stop-opacity:1;"/>
<stop offset="0.278" style="stop-color:rgb(12.156863%,49.803922%,89.803922%);stop-opacity:1;"/>
<stop offset="0.569" style="stop-color:rgb(15.294118%,61.176473%,92.156863%);stop-opacity:1;"/>
<stop offset="0.82" style="stop-color:rgb(17.254902%,68.627453%,93.725491%);stop-opacity:1;"/>
<stop offset="1" style="stop-color:rgb(18.039216%,70.980394%,94.117647%);stop-opacity:1;"/>
</linearGradient>
</defs>
<g id="surface19810838">
<path style=" stroke:none;fill-rule:nonzero;fill:url(#linear0);" d="M 32 45 C 15.46875 45 3 39.410156 3 32 C 3 24.589844 15.46875 19 32 19 C 48.53125 19 61 24.589844 61 32 C 61 39.410156 48.53125 45 32 45 Z M 32 23 C 17.691406 23 7 27.75 7 32 C 7 36.246094 17.691406 41 32 41 C 46.308594 41 57 36.246094 57 32 C 57 27.75 46.308594 23 32 23 Z M 32 23 "/>
<path style=" stroke:none;fill-rule:nonzero;fill:url(#linear1);" d="M 42.96875 58.023438 C 40.226562 58.023438 37.007812 56.660156 33.582031 54 C 29.035156 50.46875 24.472656 44.964844 20.742188 38.496094 C 12.476562 24.179688 11.082031 10.589844 17.5 6.882812 C 23.914062 3.179688 34.992188 11.179688 43.257812 25.496094 C 46.988281 31.964844 49.476562 38.664062 50.261719 44.371094 C 51.132812 50.683594 49.796875 55.210938 46.5 57.113281 C 45.445312 57.722656 44.257812 58.023438 42.96875 58.023438 Z M 19.5 10.347656 C 15.820312 12.472656 17.050781 24.109375 24.203125 36.5 C 27.683594 42.527344 31.886719 47.621094 36.035156 50.84375 C 39.59375 53.605469 42.757812 54.65625 44.5 53.648438 C 46.242188 52.644531 46.914062 49.378906 46.300781 44.917969 C 45.585938 39.714844 43.273438 33.527344 39.792969 27.5 C 32.640625 15.109375 23.183594 8.226562 19.5 10.347656 Z M 19.5 10.347656 "/>
<path style=" stroke:none;fill-rule:nonzero;fill:url(#linear2);" d="M 21.011719 58.015625 C 19.734375 58.015625 18.554688 57.726562 17.5 57.117188 C 14.203125 55.214844 12.867188 50.6875 13.734375 44.375 C 14.519531 38.667969 17.007812 31.964844 20.742188 25.503906 C 24.472656 19.039062 29.035156 13.53125 33.582031 10 C 38.613281 6.089844 43.203125 4.984375 46.5 6.886719 C 49.796875 8.789062 51.132812 13.316406 50.261719 19.628906 C 49.476562 25.335938 46.992188 32.039062 43.257812 38.503906 C 36.351562 50.464844 27.484375 58.015625 21.011719 58.015625 Z M 24.203125 27.5 C 20.726562 33.527344 18.414062 39.714844 17.699219 44.917969 C 17.085938 49.382812 17.757812 52.644531 19.5 53.648438 C 23.179688 55.777344 32.640625 48.890625 39.792969 36.5 C 43.273438 30.472656 45.585938 24.289062 46.300781 19.085938 C 46.914062 14.621094 46.242188 11.355469 44.5 10.351562 C 42.761719 9.347656 39.59375 10.394531 36.035156 13.15625 C 31.886719 16.378906 27.683594 21.472656 24.203125 27.5 Z M 24.203125 27.5 "/>
<path style=" stroke:none;fill-rule:nonzero;fill:url(#linear3);" d="M 37 32 C 37 34.761719 34.761719 37 32 37 C 29.238281 37 27 34.761719 27 32 C 27 29.238281 29.238281 27 32 27 C 34.761719 27 37 29.238281 37 32 Z M 37 32 "/>
</g>
</svg>
